<svg width="30" height="30" viewBox="0 0 30 30" fill="none" xmlns="http://www.w3.org/2000/svg">
<path d="M26.3671 0.000445361C25.5561 -0.0142846 23.6722 0.323755 20.5268 2.90852C18.8126 2.38247 16.9886 2.12288 15.1615 2.12288C13.1511 2.12288 11.1196 2.43632 9.22501 3.07445C4.70915 -0.708154 2.7159 0.0670153 2.7159 0.0670153C1.41462 4.0625 2.21875 7.02065 2.46316 7.75532C0.933698 9.78206 0 12.3701 0 15.5421C0 17.9367 0.221978 20.0846 0.764302 21.9517C0.794379 22.0958 0.78463 22.0636 0.835305 22.187C0.954784 22.5735 1.08763 22.9487 1.23694 23.311C1.28811 23.4414 1.33468 23.5379 1.33468 23.5379C2.8592 27.0271 5.86453 29.2811 11.2117 29.9888L19.2991 30C25.0016 29.3057 27.738 27.045 28.999 23.5323L29.0792 23.3035C29.1986 22.9487 29.3028 22.5795 29.5877 21.3367C29.8726 20.0939 30 17.9415 30 15.5411C30 12.0985 28.9469 9.34382 27.2368 7.24811C27.5356 6.06371 27.9348 3.43337 26.8382 0.0660553C26.8382 0.0660553 26.6844 0.00620536 26.3671 0.000415361L26.3671 0.000445361ZM19.9939 12.634C21.3106 12.6305 22.4386 12.9081 23.2855 13.9989V13.9999C24.3451 15.3661 24.9652 17.0156 24.9652 18.7932C24.9652 27.0929 20.6177 27.3187 15.2554 27.3187C9.89211 27.3187 5.54555 26.1686 5.54555 18.7932C5.54555 17.0274 6.15661 15.3877 7.20319 14.0271C8.94898 11.7594 11.9033 12.9602 15.2554 12.9602C16.9761 12.9599 18.5921 12.6377 19.9939 12.6339L19.9939 12.634ZM10.0053 15.078C8.88953 15.078 7.98499 16.9302 7.98499 19.2161C7.98499 21.5023 8.88949 23.3551 10.0053 23.3551C11.1211 23.3551 12.0256 21.5023 12.0256 19.2161C12.0256 16.9306 11.1211 15.0797 10.0053 15.078ZM20.8452 15.078C19.7294 15.078 18.8248 16.9302 18.8248 19.2161C18.8248 21.5023 19.7293 23.3551 20.8452 23.3551C21.9609 23.3551 22.8655 21.5023 22.8655 19.2161C22.8655 16.9306 21.961 15.0797 20.8452 15.078Z" fill="#01BAEF"/>
</svg>
