<svg width="30" height="30" viewBox="0 0 30 30" fill="none" xmlns="http://www.w3.org/2000/svg">
<path fill-rule="evenodd" clip-rule="evenodd" d="M21.8735 17.9775C21.4992 17.7912 19.6642 16.8937 19.3225 16.7687C18.9809 16.645 18.7322 16.5837 18.4823 16.9562C18.2336 17.3262 17.5189 18.1637 17.3016 18.4112C17.0831 18.66 16.8658 18.69 16.4927 18.505C16.1197 18.3175 14.9164 17.9262 13.4909 16.6612C12.3818 15.6762 11.632 14.46 11.4147 14.0875C11.1974 13.7162 11.3908 13.515 11.578 13.33C11.7463 13.1637 11.951 12.8962 12.1381 12.68C12.3253 12.4625 12.3868 12.3075 12.5112 12.0587C12.6368 11.8112 12.574 11.595 12.4798 11.4087C12.3868 11.2225 11.6408 9.39373 11.3293 8.64998C11.0266 7.92623 10.7188 8.02498 10.4902 8.01248C10.2717 8.00248 10.023 7.99998 9.77431 7.99998C9.52562 7.99998 9.12118 8.09248 8.77955 8.46498C8.43666 8.83623 7.47329 9.73498 7.47329 11.5637C7.47329 13.3912 8.80969 15.1575 8.99684 15.4062C9.18398 15.6537 11.6282 19.4062 15.3724 21.015C16.2641 21.3975 16.9587 21.6262 17.5001 21.7962C18.3943 22.08 19.2082 22.04 19.8513 21.9437C20.5673 21.8375 22.0594 21.045 22.3709 20.1775C22.6811 19.31 22.6811 18.5662 22.5882 18.4112C22.4952 18.2562 22.2465 18.1637 21.8723 17.9775H21.8735ZM15.0634 27.2312H15.0584C12.8345 27.2316 10.6515 26.6367 8.7381 25.5087L8.28593 25.2412L3.58592 26.4687L4.84068 21.9087L4.54552 21.4412C3.30224 19.4717 2.64428 17.1922 2.64768 14.8662C2.65019 8.05373 8.21936 2.51124 15.0684 2.51124C18.3843 2.51124 21.5017 3.79874 23.8455 6.13373C25.0015 7.27946 25.9177 8.64194 26.5412 10.1424C27.1647 11.6428 27.4831 13.2513 27.4778 14.875C27.4753 21.6875 21.9062 27.2312 15.0634 27.2312ZM25.629 4.35999C24.2451 2.97364 22.5985 1.87441 20.7847 1.12599C18.9708 0.377569 17.0257 -0.00515634 15.0621 -9.81328e-06C6.83021 -9.81328e-06 0.128114 6.66873 0.125602 14.865C0.124346 17.485 0.811386 20.0425 2.1189 22.2962L0 30L7.91792 27.9325C10.1083 29.1201 12.5628 29.7424 15.0571 29.7425H15.0634C23.2953 29.7425 29.9974 23.0737 29.9999 14.8762C30.006 12.9228 29.6228 10.9876 28.8726 9.18252C28.1223 7.37744 27.0199 5.73832 25.629 4.35999Z" fill="#01BAEF"/>
</svg>
